<?xml version="1.0" standalone="no"?>
<!DOCTYPE svg PUBLIC "-//W3C//DTD SVG 20010904//EN"
 "http://www.w3.org/TR/2001/REC-SVG-20010904/DTD/svg10.dtd">
<svg version="1.0" xmlns="http://www.w3.org/2000/svg"
 width="672.000000pt" height="672.000000pt" viewBox="0 0 672.000000 672.000000"
 preserveAspectRatio="xMidYMid meet">
<metadata>
Created by potrace 1.14, written by Peter Selinger 2001-2017
</metadata>
<g transform="translate(0.000000,672.000000) scale(0.100000,-0.100000)"
fill="#000000" stroke="none">
<path d="M3695 6200 c10 -11 20 -20 23 -20 3 0 -3 9 -13 20 -10 11 -20 20 -23
20 -3 0 3 -9 13 -20z"/>
<path d="M3081 6169 c-14 -5 -32 -8 -40 -7 -9 1 -23 -2 -31 -7 -8 -5 -64 -10
-125 -11 -156 -2 -157 -2 -149 -15 5 -9 -1 -10 -22 -4 -53 14 -113 22 -108 13
3 -4 -8 -8 -23 -8 -16 0 -38 -6 -48 -14 -18 -13 -18 -14 10 -10 l30 4 -30 -15
c-16 -8 -36 -14 -42 -15 -7 0 -13 -4 -13 -8 0 -4 -40 -19 -89 -32 -49 -14 -88
-27 -85 -31 7 -12 -31 -37 -71 -44 -22 -5 -43 -9 -47 -10 -5 -2 -14 -3 -20 -4
-10 -1 -9 -4 1 -10 14 -9 7 -31 -11 -31 -5 0 -21 -9 -35 -20 -14 -11 -34 -20
-44 -20 -11 0 -19 -7 -19 -15 0 -8 -7 -15 -15 -15 -8 0 -15 -4 -15 -10 0 -5
-11 -12 -25 -16 -14 -4 -24 -9 -21 -12 8 -7 -13 -42 -24 -42 -11 0 -69 -61
-70 -72 0 -14 -38 -46 -46 -40 -4 4 -4 2 -1 -4 3 -6 -16 -32 -43 -57 -27 -26
-44 -47 -37 -47 7 -1 5 -6 -6 -14 -10 -8 -16 -18 -15 -24 4 -13 -19 -48 -59
-90 -17 -18 -37 -46 -44 -62 -7 -16 -17 -26 -21 -24 -4 3 -9 -3 -9 -13 -2 -32
-4 -38 -19 -63 -8 -14 -15 -38 -16 -55 -1 -16 -3 -30 -4 -30 -1 0 -3 -16 -4
-35 -3 -45 -15 -80 -27 -80 -5 0 -9 -5 -9 -11 0 -5 5 -7 10 -4 6 3 10 2 10 -4
0 -5 -5 -13 -10 -16 -6 -4 -8 -11 -5 -16 4 -5 -5 -14 -19 -21 -14 -6 -26 -15
-26 -20 0 -5 5 -6 10 -3 6 3 10 0 10 -7 0 -10 3 -9 10 2 6 10 9 5 8 -20 0 -19
3 -49 6 -67 3 -18 1 -35 -4 -38 -6 -4 -7 1 -3 11 4 12 3 15 -6 10 -8 -5 -10
-19 -6 -38 5 -21 4 -28 -4 -24 -6 4 -11 4 -11 1 0 -11 40 -59 40 -49 1 5 7 -2
15 -16 10 -19 11 -28 2 -39 -10 -12 -9 -14 6 -8 15 6 17 0 17 -44 0 -28 4 -48
9 -45 20 13 37 -71 44 -216 1 -20 5 -34 10 -31 6 4 12 -38 8 -60 -1 -5 3 -6 8
-3 5 3 12 -18 16 -46 4 -29 12 -58 17 -65 5 -7 7 -17 3 -23 -3 -5 -1 -10 4
-10 6 0 11 -13 11 -29 0 -16 5 -31 11 -33 9 -3 9 -10 0 -26 -10 -18 -9 -27 3
-44 12 -16 13 -25 4 -35 -9 -11 -8 -13 3 -11 8 2 13 -3 11 -9 -1 -7 2 -13 8
-13 6 0 9 -3 9 -7 -3 -20 4 -33 37 -67 20 -21 42 -35 49 -32 19 7 61 -38 91
-100 15 -30 28 -54 31 -54 2 0 2 3 -1 8 -2 4 -7 37 -10 74 -3 36 -8 72 -10 80
-3 7 -7 45 -10 83 -3 39 -13 108 -21 155 -21 120 -18 241 8 299 22 47 24 53
26 73 0 6 4 8 8 4 8 -8 9 -13 12 -40 1 -9 8 -12 21 -9 16 4 18 8 9 19 -8 10
-7 17 5 29 21 22 20 31 -1 14 -10 -7 -8 -2 5 12 21 24 22 66 1 54 -5 -3 -11 7
-15 22 -12 55 -16 63 -25 58 -14 -10 -11 8 8 35 16 24 16 24 -2 10 -17 -14
-18 -13 -12 28 5 26 3 42 -3 42 -15 0 -12 19 5 37 8 8 12 19 9 25 -4 7 -2 8 5
4 6 -4 13 0 17 11 3 10 9 25 14 34 5 9 6 26 4 37 -4 12 1 25 14 33 11 8 19 16
18 19 -3 16 36 51 72 65 23 10 40 21 37 25 -6 9 39 40 58 40 8 0 28 7 46 16
17 9 39 13 48 10 13 -5 14 -4 3 9 -11 13 -8 15 23 15 20 0 38 4 42 9 3 6 17 6
34 1 24 -7 29 -5 24 6 -6 17 -3 17 32 4 23 -9 24 -8 16 8 -8 16 -1 17 82 17
69 0 91 4 89 13 -2 10 4 9 25 -2 22 -10 31 -11 39 -2 18 19 142 10 186 -15 22
-11 31 -12 24 0 -10 15 24 22 47 10 22 -12 22 -11 4 9 -11 12 -14 22 -8 26 5
4 12 2 16 -4 3 -5 11 -10 17 -10 7 0 7 4 -1 13 -8 11 -3 13 24 12 21 -1 40 4
47 13 11 13 11 14 -1 7 -9 -5 -12 -4 -7 3 4 6 21 8 42 5 26 -4 34 -2 32 8 -2
8 10 16 32 20 32 6 32 6 7 8 -16 0 -36 9 -45 18 -16 16 -16 16 0 10 10 -3 20
-2 23 4 4 5 12 6 18 2 11 -7 61 -13 140 -16 22 -1 27 -5 23 -19 -3 -15 0 -18
16 -12 13 4 18 2 14 -4 -4 -7 3 -9 19 -6 21 4 25 0 26 -18 0 -20 1 -21 8 -5 6
17 8 16 20 -7 8 -14 28 -32 46 -40 31 -15 65 -46 50 -46 -4 0 -13 7 -20 16
-11 16 -12 16 -18 0 -4 -9 -3 -14 2 -11 5 3 12 -4 16 -15 3 -11 9 -19 13 -17
4 1 8 -2 9 -7 1 -5 19 -20 41 -35 23 -15 37 -32 34 -40 -3 -8 0 -11 7 -7 6 4
11 1 11 -7 0 -8 9 -22 20 -32 12 -10 18 -25 15 -33 -3 -8 2 -20 11 -27 10 -7
14 -17 10 -24 -6 -9 -13 -8 -29 6 -22 18 -22 18 -7 -2 35 -47 40 -63 22 -70
-16 -6 -15 -8 2 -21 11 -8 15 -14 9 -14 -10 0 -12 -47 -2 -65 3 -5 5 -17 4
-25 0 -8 8 -23 19 -32 10 -10 16 -18 13 -18 -3 0 -2 -13 3 -29 6 -22 4 -33 -6
-42 -8 -7 -13 -17 -11 -23 2 -6 -19 -19 -47 -28 -32 -11 -52 -14 -54 -8 -2 6
-8 8 -13 4 -5 -3 -9 -1 -9 5 0 6 -11 4 -26 -4 -15 -7 -32 -11 -39 -8 -7 2 -27
-3 -44 -11 -17 -9 -33 -16 -36 -16 -3 0 -6 0 -7 -1 -10 -2 -66 -11 -80 -12
-10 -1 -18 -6 -18 -13 0 -6 -11 -10 -25 -9 -21 3 -25 -1 -25 -23 0 -25 -1 -25
-15 -6 -13 18 -14 18 -9 -6 3 -14 2 -21 -3 -15 -13 16 -45 18 -54 3 -5 -7 -9
-26 -9 -42 0 -27 -1 -28 -18 -13 -11 11 -22 13 -32 7 -12 -8 -12 -10 2 -15 9
-4 18 -15 21 -26 4 -15 2 -19 -8 -15 -20 7 -26 -6 -9 -22 7 -7 16 -12 19 -12
11 0 40 -36 40 -50 0 -8 -8 -19 -18 -25 -24 -13 -59 -109 -58 -158 1 -20 13
-65 27 -99 21 -49 26 -82 30 -167 5 -129 5 -131 17 -131 6 0 8 -3 4 -6 -3 -4
5 -23 18 -43 14 -19 25 -46 25 -59 0 -13 4 -20 10 -17 6 3 10 -2 10 -12 0 -11
5 -24 11 -30 7 -7 8 -19 4 -30 -4 -10 -8 -29 -9 -42 -1 -13 -16 -36 -34 -52
-22 -20 -32 -38 -32 -58 0 -33 -5 -35 -113 -44 -37 -4 -53 0 -74 17 -20 15
-46 22 -100 26 -70 5 -72 4 -59 -15 20 -31 115 -74 152 -68 26 4 37 0 58 -24
22 -25 38 -31 116 -42 50 -8 93 -11 97 -7 3 3 17 -1 29 -9 24 -15 89 -10 78 6
-3 5 1 6 9 3 8 -3 20 2 27 11 10 12 16 13 26 4 11 -9 14 -8 14 0 0 7 5 9 10 6
6 -4 9 -1 8 7 -2 8 4 12 15 10 9 -2 17 3 17 11 0 8 12 19 26 26 21 9 25 16 19
34 -4 12 -8 40 -10 62 -2 22 -5 47 -8 55 -2 8 -11 35 -18 59 -18 61 -66 131
-90 131 -20 0 -91 66 -98 91 -2 8 -4 37 -6 64 -1 28 -4 50 -5 50 -1 0 -3 12
-4 28 -1 15 2 27 7 27 5 0 3 10 -5 23 -8 12 -17 30 -21 40 -6 16 -5 16 18 1
34 -22 31 -5 -5 30 -17 16 -30 33 -30 38 0 4 -7 8 -15 8 -22 0 -30 29 -12 43
9 7 17 23 19 37 2 14 9 24 15 23 7 -2 18 7 24 20 19 35 99 106 143 126 52 23
119 33 161 25 27 -5 32 -9 22 -19 -7 -7 -13 -12 -15 -10 -9 8 -142 -29 -184
-52 -64 -35 -155 -130 -139 -146 8 -8 23 -8 59 2 54 14 78 31 44 31 -12 0 -22
-4 -22 -10 0 -5 -7 -10 -15 -10 -8 0 -15 5 -15 10 0 6 7 10 15 10 9 0 20 11
25 24 5 13 19 31 31 40 22 15 24 14 43 -21 23 -40 61 -57 112 -48 53 9 48 -9
-8 -27 -33 -12 -54 -15 -56 -8 -4 11 -22 4 -22 -9 0 -9 7 -10 80 -14 30 -2 70
2 88 9 17 7 32 10 32 6 0 -4 4 -1 9 7 11 17 43 7 36 -12 -3 -7 -30 -21 -59
-31 -44 -15 -76 -18 -187 -14 -74 2 -121 2 -104 0 16 -2 33 -8 36 -13 9 -15
194 -32 263 -24 38 4 77 15 101 30 22 13 61 37 87 52 31 18 48 35 49 48 0 15
2 16 7 5 10 -21 33 -24 25 -3 -5 13 -2 15 11 10 10 -4 20 -7 22 -7 3 0 3 -4 0
-9 -4 -5 4 -7 16 -4 13 3 20 3 16 -1 -3 -4 2 -16 13 -27 19 -19 17 -45 -2 -34
-12 8 -11 3 7 -33 8 -18 19 -32 24 -32 7 0 15 -34 35 -135 2 -11 4 -30 4 -43
1 -13 5 -21 10 -18 5 3 8 -5 7 -19 0 -16 -6 -23 -13 -20 -16 5 -17 -11 -3 -20
6 -4 9 -14 6 -23 -3 -10 -6 -34 -8 -54 -1 -20 -5 -35 -8 -33 -4 2 -12 -12 -19
-31 -7 -18 -18 -34 -24 -34 -7 0 -6 -4 3 -10 9 -6 10 -10 3 -10 -6 0 -13 -10
-15 -22 -2 -13 -9 -22 -16 -20 -14 3 -15 -18 -2 -52 6 -16 6 -27 0 -31 -6 -4
-10 3 -10 14 0 12 -5 21 -11 21 -5 0 -8 -4 -5 -9 4 -5 0 -12 -6 -14 -10 -4
-10 -6 0 -6 6 -1 12 -11 12 -22 0 -17 3 -19 14 -10 10 9 17 7 27 -6 9 -11 10
-14 2 -9 -14 8 -18 -15 -5 -28 4 -4 7 -13 7 -19 1 -7 7 -11 14 -9 9 2 12 -4 8
-20 -3 -13 -2 -32 2 -42 7 -18 9 -17 26 12 20 34 43 46 26 13 -12 -22 -6 -61
11 -74 10 -7 10 -10 0 -14 -6 -2 -10 -9 -6 -14 3 -5 0 -9 -5 -9 -6 0 -11 6
-12 13 -1 6 -4 1 -8 -13 -9 -28 -4 -41 8 -21 6 10 10 9 14 -3 4 -10 -2 -25
-13 -36 -11 -11 -15 -20 -8 -20 9 0 9 -3 0 -12 -7 -7 -12 -20 -12 -29 0 -9 -7
-29 -15 -45 -11 -22 -12 -30 -2 -36 8 -5 4 -8 -11 -8 -19 0 -21 -4 -16 -25 5
-20 3 -24 -10 -19 -10 4 -16 1 -16 -7 0 -8 -12 -22 -25 -32 l-25 -18 0 37 c0
33 -2 35 -17 23 -15 -12 -16 -12 -10 3 3 10 2 20 -3 23 -6 4 -10 -3 -10 -14 0
-12 -5 -21 -11 -21 -5 0 -7 -4 -4 -10 3 -5 2 -18 -4 -27 -5 -10 -10 -34 -12
-53 -2 -19 -7 -41 -12 -48 -6 -7 -7 -15 -4 -18 8 -8 -13 -64 -25 -64 -5 0 -7
-4 -3 -9 3 -5 1 -12 -4 -15 -5 -3 -7 -15 -4 -26 3 -11 1 -20 -5 -20 -14 0 -35
-57 -26 -71 4 -7 3 -10 -2 -6 -6 3 -16 -8 -23 -24 -8 -18 -19 -28 -29 -27 -12
2 -16 -3 -15 -19 3 -23 -13 -29 -57 -23 -11 1 -10 -2 4 -13 15 -11 16 -16 6
-22 -9 -6 -11 -4 -5 5 5 9 4 11 -3 6 -7 -4 -12 -18 -12 -32 0 -13 -3 -24 -7
-24 -5 0 -9 -25 -9 -55 -1 -44 1 -53 11 -45 9 8 14 6 19 -7 4 -10 4 -15 1 -11
-3 3 -18 -5 -32 -18 -14 -13 -29 -21 -34 -18 -5 3 -9 1 -9 -4 0 -6 -7 -13 -16
-16 -10 -4 -13 -2 -8 7 6 9 4 9 -7 1 -8 -6 -22 -10 -32 -9 -15 3 -16 1 -6 -11
7 -8 8 -14 3 -12 -5 1 -18 -3 -30 -9 -12 -7 -25 -8 -35 -2 -19 12 -25 11 -43
-7 -9 -8 -16 -11 -16 -5 0 6 -7 11 -15 11 -8 0 -15 -5 -15 -11 0 -5 -4 -7 -10
-4 -5 3 -19 1 -31 -6 -17 -9 -20 -8 -14 2 6 8 4 10 -5 4 -20 -12 -114 -13
-122 -1 -6 8 -11 7 -16 -2 -7 -10 -19 -11 -53 -3 -24 5 -70 9 -101 9 -73 0
-166 48 -328 167 -63 47 -119 85 -125 85 -5 -1 -2 -5 7 -10 9 -6 33 -33 54
-62 63 -85 212 -227 240 -228 6 0 18 -8 28 -19 11 -12 25 -16 41 -13 15 2 25
0 25 -7 0 -7 4 -10 9 -6 5 3 16 -2 25 -10 8 -9 18 -16 21 -16 2 0 10 -1 17 -4
154 -52 289 -84 346 -80 18 1 32 -1 32 -5 0 -8 83 -55 92 -52 4 1 5 -5 2 -13
-4 -8 -1 -15 5 -15 6 0 11 -8 11 -17 1 -16 2 -16 15 1 8 11 16 17 16 13 1 -4
2 -13 3 -19 1 -7 7 -12 13 -11 6 1 10 -10 9 -26 -2 -24 1 -27 24 -23 14 2 30
10 35 17 10 11 25 15 71 17 12 0 27 11 34 23 7 13 20 26 29 29 9 3 31 15 50
27 22 13 43 18 58 14 13 -3 23 -1 23 5 0 5 7 10 15 10 8 0 15 -4 15 -10 0 -14
20 -8 42 12 53 51 57 -6 7 -104 -12 -24 -11 -41 1 -33 6 3 7 -1 4 -9 -3 -9
-11 -16 -18 -16 -6 0 -4 -5 4 -10 8 -5 11 -10 6 -10 -6 0 -1 -6 10 -14 17 -13
22 -11 46 17 48 55 174 248 216 332 46 90 92 238 92 295 0 21 -7 56 -15 79
-28 81 28 34 99 -84 88 -146 132 -223 166 -293 29 -60 39 -71 60 -72 36 0 215
-47 280 -72 53 -21 114 -57 190 -111 24 -18 91 -40 215 -71 99 -25 225 -59
280 -77 120 -37 155 -45 99 -23 -23 10 -47 27 -54 38 -12 19 -12 20 4 6 22
-17 56 -23 57 -10 1 6 2 15 3 20 0 6 4 10 9 10 31 0 32 0 19 -9 -11 -6 -9 -9
6 -13 26 -7 24 23 -3 38 -15 7 -22 7 -27 -2 -19 -31 -128 11 -128 49 0 6 6 2
14 -9 12 -15 17 -17 27 -7 7 7 17 13 23 13 5 0 2 -6 -8 -13 -13 -10 -14 -14
-5 -14 8 0 25 -3 39 -7 23 -7 23 -7 7 6 -10 8 -17 20 -15 27 2 8 -10 21 -27
30 -16 9 -33 20 -36 25 -4 5 -13 5 -20 1 -11 -6 -12 -5 -1 6 19 20 15 29 -15
30 -25 2 -25 2 -5 6 13 3 30 -1 39 -8 21 -18 43 -20 43 -3 0 11 5 11 25 2 18
-8 28 -8 39 1 8 7 21 9 28 5 10 -5 10 -4 2 5 -8 8 -18 9 -37 2 -22 -9 -27 -7
-32 10 -5 14 -12 18 -25 14 -27 -8 -109 17 -84 25 10 4 38 2 62 -3 31 -6 47
-6 55 3 9 8 8 10 -4 5 -10 -4 -20 -2 -24 4 -3 6 -17 11 -31 11 -13 0 -24 5
-24 11 0 6 9 8 20 4 11 -4 20 -2 20 4 0 6 -3 10 -7 9 -5 -1 -18 3 -29 10 -12
6 -24 9 -27 5 -3 -3 -14 -2 -24 1 -17 7 -17 8 0 17 14 8 16 14 6 25 -8 10 -8
14 0 14 10 0 14 -12 9 -26 -4 -8 44 -33 64 -34 9 0 18 -4 20 -8 2 -4 18 -18
37 -31 l34 -24 -19 28 -19 28 33 -6 c36 -7 45 7 10 16 -12 4 -29 1 -37 -6 -11
-9 -15 -9 -18 1 -3 6 -12 12 -21 12 -14 1 -14 3 4 18 l21 18 -24 17 c-12 10
-23 23 -23 29 0 9 64 -33 80 -52 3 -3 16 -6 30 -7 l25 -1 -26 12 c-15 6 -39
23 -54 39 -15 15 -33 27 -40 27 -7 0 -15 7 -19 15 -3 10 1 15 14 15 26 0 33
15 15 30 -14 12 -19 7 -16 -13 1 -5 -3 -6 -9 -2 -6 3 -8 10 -5 15 3 4 -3 6
-13 3 -25 -6 -50 23 -33 40 10 9 12 9 9 -3 -6 -27 45 -23 65 5 16 22 16 25 2
25 -9 0 -24 7 -32 16 -13 12 -13 15 -2 14 8 -1 25 -2 39 0 23 1 23 2 5 10 -22
10 -13 13 25 10 20 -1 23 1 13 11 -7 7 -23 14 -35 16 -12 2 -25 8 -28 14 -4 5
-15 6 -26 2 -18 -7 -18 -6 -1 11 14 14 23 16 45 8 16 -5 35 -5 47 0 18 8 18 8
-3 4 -15 -3 -26 2 -32 15 -9 16 -7 19 9 19 11 0 22 4 26 10 6 10 -38 7 -67 -5
-10 -4 -18 -3 -18 3 0 5 13 12 29 15 16 3 36 14 45 23 12 11 26 14 47 10 20
-4 28 -2 23 5 -4 7 -24 9 -50 6 -24 -2 -41 -1 -39 4 3 4 -3 12 -12 18 -17 10
-17 10 0 11 10 0 20 6 23 14 3 8 12 12 20 9 8 -3 14 0 14 6 0 17 -25 13 -50
-9 -33 -29 -72 -26 -87 6 -9 20 -9 23 1 15 8 -7 21 -6 40 4 37 19 66 19 94 -1
13 -9 25 -14 28 -11 5 5 -91 67 -104 67 -4 0 -13 10 -21 21 -11 18 -11 23 0
30 8 4 16 4 19 0 9 -13 39 -20 45 -10 4 5 12 6 18 3 7 -4 9 -4 5 1 -4 4 0 14
10 22 16 12 16 13 -2 6 -14 -5 -18 -3 -14 8 4 10 -2 14 -20 16 -16 1 -21 -2
-12 -7 10 -6 8 -9 -6 -13 -13 -3 -9 -5 10 -6 22 -1 27 -4 19 -12 -8 -8 -17 -7
-34 2 -13 7 -27 13 -31 14 -3 0 -10 3 -14 7 -3 4 3 6 14 3 11 -2 23 3 26 11 3
8 1 14 -4 14 -5 0 -7 6 -4 13 3 9 -11 19 -43 30 -26 9 -40 16 -29 16 11 1 16
6 13 14 -7 19 4 33 30 41 18 6 25 2 35 -18 6 -14 18 -26 25 -26 10 0 6 10 -12
32 -18 21 -23 33 -15 38 8 5 4 9 -9 13 -12 3 -19 2 -16 -3 6 -10 -33 -20 -52
-13 -8 3 -12 11 -10 18 3 6 -10 17 -31 25 -29 10 -32 14 -18 22 11 6 21 4 32
-6 8 -9 20 -16 26 -16 5 0 8 -7 4 -15 -3 -9 0 -15 9 -15 8 0 15 5 15 10 0 6 6
10 14 10 8 0 16 6 18 12 4 10 10 10 29 2 19 -9 27 -8 38 3 11 12 11 14 -5 13
-41 -5 -56 0 -50 15 3 10 -3 17 -19 21 -14 3 -25 10 -25 15 0 4 -9 13 -19 19
-25 13 -111 24 -92 11 8 -5 9 -11 3 -15 -6 -3 -13 -2 -17 4 -3 5 -14 10 -24
10 -11 0 -29 9 -42 21 l-24 21 28 -16 c28 -17 73 -13 62 5 -4 5 -2 9 4 9 5 0
11 -5 13 -11 2 -5 20 -12 41 -14 20 -1 35 0 32 5 -2 4 7 12 21 19 20 9 30 9
40 0 10 -8 14 -8 14 0 0 11 -6 13 -50 15 -19 1 -24 6 -22 20 3 18 2 18 -14 5
-16 -13 -16 -12 -6 8 7 12 12 24 12 26 0 2 -23 7 -52 10 -57 7 -91 27 -45 27
15 0 27 -5 27 -10 0 -6 8 -5 19 2 22 13 19 30 -3 22 -8 -3 -17 0 -22 7 -5 9 4
10 37 6 38 -6 42 -5 27 7 -10 7 -15 16 -11 19 3 4 -4 7 -16 7 -14 0 -20 -4
-15 -11 9 -14 -38 10 -48 25 -6 8 -8 8 -8 0 0 -6 3 -14 7 -18 15 -14 10 -35
-7 -33 -15 1 -16 4 -8 14 8 10 6 19 -11 37 -19 20 -19 22 -4 21 10 -1 31 -7
46 -14 38 -15 45 -14 21 4 -31 23 4 18 38 -6 28 -21 30 -21 26 -3 -2 10 -8 19
-13 19 -15 1 -52 24 -37 25 6 0 12 4 12 10 0 5 -7 6 -17 3 -10 -4 -14 -2 -10
4 4 6 0 16 -8 23 -12 10 -13 16 -4 27 7 8 18 12 26 9 7 -3 13 0 13 5 0 7 -9 9
-22 4 -40 -12 -81 -5 -65 11 4 4 12 2 19 -4 9 -7 17 -6 27 5 13 14 10 15 -22
11 -23 -2 -38 1 -41 9 -3 8 -18 10 -44 7 -30 -3 -43 0 -53 13 -13 16 -12 17 3
5 10 -8 26 -11 39 -7 17 6 19 9 8 17 -10 7 -8 8 6 2 11 -4 36 -9 55 -11 28 -2
31 -1 15 6 -17 8 -17 10 -3 10 26 1 83 -35 66 -42 -7 -3 -3 -6 9 -6 36 -2 35
15 -2 32 -42 20 -44 30 -7 43 l27 10 -32 0 c-17 -1 -29 -4 -27 -7 2 -4 -6 -9
-19 -13 -26 -7 -87 -7 -69 1 6 2 10 9 7 13 -3 5 7 5 23 1 23 -7 31 -5 40 9 9
15 7 19 -9 23 -17 4 -18 3 -8 -9 13 -16 -2 -19 -18 -3 -6 6 -17 12 -24 14 -38
9 -59 18 -59 26 0 5 -6 9 -14 9 -8 0 -18 5 -22 11 -4 8 1 9 17 4 13 -4 26 -12
27 -16 5 -11 32 -12 32 -1 0 4 -5 13 -11 19 -8 8 -3 10 18 9 15 -1 33 -5 40
-9 13 -8 43 1 43 13 0 11 -41 23 -72 21 -16 -1 -28 2 -28 6 0 5 -10 9 -22 10
-69 1 -91 4 -85 9 3 3 34 6 69 5 35 0 83 6 108 14 l45 14 -40 -3 c-22 -2 -54
-7 -71 -11 -21 -5 -34 -3 -39 6 -5 7 -4 10 2 6 9 -6 103 28 103 37 0 2 -13 6
-29 8 -17 2 -28 1 -25 -4 3 -4 1 -8 -4 -8 -8 0 -22 22 -22 35 0 1 10 5 23 9
l22 6 -23 18 c-28 21 -19 34 17 25 25 -6 24 -4 -11 30 -21 20 -46 41 -57 46
-16 9 -18 8 -14 -9 8 -30 -4 -24 -22 10 -13 26 -14 29 0 24 19 -8 19 10 0 30
-8 8 -15 17 -15 20 0 12 46 5 68 -10 12 -8 22 -12 22 -8 0 3 7 1 15 -6 12 -10
15 -10 15 0 0 8 9 10 28 6 22 -5 24 -4 9 5 -10 6 -24 9 -30 6 -7 -2 -21 -1
-32 4 -18 7 -18 8 -2 8 36 2 5 21 -34 21 -21 0 -39 4 -39 9 0 5 9 7 20 4 11
-3 20 -1 20 5 0 14 -27 23 -47 15 -15 -5 -15 -3 1 9 21 17 73 9 87 -13 4 -7 9
-8 13 -1 8 13 -17 33 -43 35 -11 0 -18 4 -15 8 2 4 -1 9 -8 11 -6 2 -12 12
-14 22 -1 10 3 15 9 13 7 -3 11 -10 9 -17 -1 -6 3 -10 9 -8 18 6 19 36 3 52
-19 19 -18 34 4 39 12 3 10 5 -7 6 -24 1 -21 16 2 16 7 1 11 6 9 13 -1 9 7 11
25 7 23 -5 25 -4 11 5 -9 6 -15 19 -13 30 2 11 0 18 -5 15 -15 -9 -36 7 -64
48 l-26 38 26 -3 c15 -2 33 -14 42 -28 l16 -25 -23 23 c-13 13 -25 21 -28 19
-8 -9 17 -47 30 -47 19 0 36 21 30 36 -3 8 1 14 10 14 8 0 20 7 27 15 10 13 9
15 -9 15 -11 0 -21 -4 -21 -9 0 -5 -6 -8 -12 -7 -19 3 -55 25 -41 26 6 0 14
-4 18 -10 3 -5 13 -6 22 -3 14 5 13 9 -7 25 -13 10 -26 15 -29 10 -3 -5 -19 0
-36 11 -16 10 -21 16 -10 12 30 -11 69 -13 91 -3 18 7 18 8 -1 7 -38 -2 -58 1
-52 8 4 3 23 6 42 5 21 -1 33 3 30 8 -3 6 -14 10 -23 10 -15 0 -15 2 -2 10 10
6 16 6 18 0 2 -6 13 -10 25 -9 21 0 21 1 -3 11 -14 6 -31 10 -39 9 -11 -2 -11
1 2 13 8 9 26 17 39 17 19 1 20 2 4 6 -15 4 -16 7 -5 14 11 7 9 10 -8 15 -35
10 -27 20 13 18 46 -3 35 9 -13 13 -22 2 -40 -2 -45 -10 -4 -6 -8 -7 -8 -2 0
24 19 38 44 31 17 -4 26 -2 26 5 0 7 -3 9 -7 6 -3 -4 -13 -1 -22 7 -9 8 -25
16 -36 18 -11 2 -20 11 -21 21 -1 11 0 12 3 3 3 -12 10 -13 30 -5 19 7 28 6
33 -2 5 -7 10 -7 13 -2 9 14 -38 37 -54 28 -8 -5 -10 -4 -5 3 4 7 12 12 17 12
6 0 18 7 26 16 9 9 25 13 36 10 11 -3 16 -1 11 3 -5 5 -26 11 -47 14 -33 5
-37 4 -27 -8 8 -10 9 -15 2 -15 -18 0 -24 20 -12 35 7 8 8 15 3 15 -5 0 -18 7
-29 16 -19 15 -18 15 3 9 32 -9 36 9 8 39 -20 21 -21 26 -8 22 10 -3 25 -1 33
5 13 10 13 10 -1 6 -22 -7 -44 8 -44 30 0 13 -7 17 -23 15 -13 -1 -31 2 -40 8
-14 8 -12 9 11 10 16 0 26 4 22 10 -3 6 1 10 10 10 10 0 13 5 9 13 -4 6 4 2
18 -10 34 -31 42 -29 13 3 -23 25 -24 28 -7 41 15 13 15 13 -5 4 -22 -11 -56
-5 -48 9 3 4 -1 10 -9 13 -7 3 -16 14 -18 25 -4 15 -2 19 8 15 8 -3 14 -9 14
-13 0 -4 12 -10 27 -13 l27 -5 -25 19 c-13 11 -39 26 -58 34 -19 9 -32 18 -28
21 3 3 14 1 26 -5 13 -7 22 -8 26 -1 3 5 1 10 -5 10 -6 0 -9 4 -5 9 3 6 -3 15
-14 20 -27 15 -34 14 -27 -4 3 -8 1 -15 -3 -15 -5 0 -15 -2 -23 -5 -8 -3 -20
10 -31 35 -11 26 -22 38 -29 34 -7 -4 -8 -3 -4 4 10 16 36 15 36 0 0 -7 5 -5
11 5 17 29 -2 40 -36 23 -30 -16 -56 -7 -54 18 0 7 2 6 6 -1 2 -7 16 -13 29
-13 24 0 24 1 9 30 -19 36 -28 39 -15 5 6 -16 6 -25 0 -25 -5 0 -12 11 -16 24
-3 15 -17 28 -37 35 -29 10 -30 10 -4 5 17 -3 26 -1 23 5 -3 5 0 12 6 14 7 3
-6 6 -28 6 -46 1 -71 20 -52 39 9 9 8 12 -6 12 -9 0 -14 -5 -11 -10 4 -7 -3
-9 -22 -5 -46 11 -53 14 -53 26 0 9 3 9 14 0 11 -9 15 -8 20 5 9 23 9 23 -25
17 -28 -4 -30 -2 -24 16 5 18 1 22 -24 27 -29 6 -30 8 -14 20 17 12 16 13 -4
11 -13 -1 -23 -5 -23 -9 0 -4 -5 -8 -10 -8 -6 0 -9 3 -9 8 3 18 -3 21 -25 12
-20 -7 -25 -5 -29 11 -6 22 3 25 21 7 9 -9 12 -9 12 1 0 7 5 9 13 5 7 -4 9 -3
4 2 -5 5 -27 9 -50 9 -34 1 -41 4 -39 18 2 9 -2 17 -8 17 -6 0 -8 -4 -5 -10 7
-11 -6 -13 -29 -4 -12 5 -13 9 -3 19 6 7 17 11 23 8 7 -2 15 0 19 6 6 10 -20
16 -52 12 -6 -1 -15 8 -18 20 -7 20 -8 20 -17 6 -7 -13 -13 -15 -29 -7 -15 9
-19 7 -19 -6 0 -10 -3 -14 -7 -10 -11 11 -12 36 -2 36 6 0 7 5 3 11 -4 8 -9 8
-17 0 -15 -15 -28 -14 -24 1 1 8 -11 13 -33 14 -19 1 -48 7 -63 13 -35 14 -50
14 -42 1 3 -5 1 -10 -4 -10 -6 0 -11 5 -11 10 0 6 -7 10 -16 10 -10 0 -14 -5
-10 -16 3 -8 2 -12 -4 -9 -6 3 -10 13 -10 20 0 9 -6 12 -17 8 -12 -4 -8 3 10
20 15 14 27 29 27 34 0 4 -5 2 -11 -4 -9 -9 -16 -9 -30 0 -21 13 -9 47 19 48
9 0 12 3 5 5 -6 3 -24 -3 -40 -13 -20 -13 -25 -14 -18 -3 16 26 14 39 -6 37
-10 -1 -19 -9 -19 -17 0 -26 -10 -30 -29 -12 -9 9 -15 26 -13 36 4 14 2 17 -9
11 -8 -5 -5 1 5 13 17 20 18 24 4 40 -9 9 -18 24 -21 32 -4 12 -6 11 -6 -2 -2
-29 -25 -20 -41 15 l-15 32 -6 -35 c-4 -28 -7 -31 -14 -17 -4 10 -3 29 3 42 7
15 8 27 2 30 -5 3 -12 -6 -16 -21 -5 -19 -9 -22 -15 -12 -5 7 -9 23 -9 36 0
13 -4 20 -10 17 -6 -3 -8 -18 -5 -33 2 -15 0 -11 -6 8 -17 55 -50 137 -45 113
2 -13 0 -23 -6 -23 -6 0 -7 -7 -4 -16 3 -9 2 -12 -5 -9 -6 4 -8 13 -5 21 7 17
-22 47 -40 40 -8 -3 -17 9 -25 32 -6 20 -16 41 -21 47 -5 5 -2 -9 6 -33 19
-52 13 -54 -13 -4 -32 60 -73 102 -105 104 -18 2 -40 16 -63 43 -19 22 -39 41
-44 41 -5 1 -11 3 -14 4 -3 1 -9 3 -13 4 -5 0 -16 9 -26 19 -10 9 -26 17 -36
17 -10 0 -21 4 -24 9 -3 5 -16 11 -28 14 l-23 6 23 -16 c28 -19 29 -38 1 -23
-15 9 -24 8 -35 -1 -13 -10 -20 -10 -36 0 -12 7 -35 15 -52 17 -25 3 -27 2
-11 -5 11 -5 16 -10 10 -10 -5 -1 -3 -6 5 -11 29 -19 -6 -10 -38 10 -19 12
-31 16 -27 10 10 -16 -6 -12 -29 8 l-21 17 20 -25 c11 -14 25 -28 30 -32 6 -4
7 -8 2 -8 -10 0 -48 22 -64 37 -8 7 -20 10 -28 6 -9 -3 -29 0 -45 7 -20 8 -34
9 -43 2 -14 -11 -46 -10 -66 3 -9 5 -12 4 -7 -3 4 -6 -5 -5 -20 3 -20 10 -33
11 -47 3 -14 -7 -17 -7 -13 1 8 13 9 13 -23 0z m-901 -273 c0 -2 -9 -6 -20 -9
-11 -3 -18 -1 -14 4 5 9 34 13 34 5z m-211 -159 c-2 -1 -13 -9 -24 -17 -19
-14 -19 -14 -6 3 7 9 18 17 24 17 6 0 8 -1 6 -3z m2291 -81 c0 -3 -4 -8 -10
-11 -5 -3 -10 -1 -10 4 0 6 5 11 10 11 6 0 10 -2 10 -4z m30 -10 c0 -3 -4 -8
-10 -11 -5 -3 -10 -1 -10 4 0 6 5 11 10 11 6 0 10 -2 10 -4z m300 -247 c0 -5
-4 -9 -10 -9 -5 0 -10 7 -10 16 0 8 5 12 10 9 6 -3 10 -10 10 -16z m127 -29
c10 -13 8 -16 -8 -17 -10 -1 -19 4 -19 11 0 11 12 30 14 24 1 -2 7 -10 13 -18z
m-37 -10 c0 -5 -2 -10 -4 -10 -3 0 -8 5 -11 10 -3 6 -1 10 4 10 6 0 11 -4 11
-10z m80 -60 c0 -5 -2 -10 -4 -10 -3 0 -8 5 -11 10 -3 6 -1 10 4 10 6 0 11 -4
11 -10z m204 -136 c3 -8 2 -12 -4 -9 -6 3 -10 10 -10 16 0 14 7 11 14 -7z m96
-38 c0 -3 -4 -8 -10 -11 -5 -3 -10 -1 -10 4 0 6 5 11 10 11 6 0 10 -2 10 -4z
m27 -52 c-7 -7 -37 7 -37 17 0 6 9 5 21 -1 11 -7 19 -14 16 -16z m48 -22 c-3
-3 -11 0 -18 7 -9 10 -8 11 6 5 10 -3 15 -9 12 -12z m135 -212 c0 -5 -2 -10
-4 -10 -3 0 -8 5 -11 10 -3 6 -1 10 4 10 6 0 11 -4 11 -10z m40 -26 c0 -8 -4
-12 -10 -9 -5 3 -10 10 -10 16 0 5 5 9 10 9 6 0 10 -7 10 -16z m-3759 -57
c-13 -13 -15 21 -3 50 6 15 8 13 10 -11 2 -16 -1 -33 -7 -39z m3764 23 c3 -5
1 -10 -4 -10 -6 0 -11 5 -11 10 0 6 2 10 4 10 3 0 8 -4 11 -10z m29 -35 c-4
-8 -11 -12 -17 -8 -8 5 -7 8 1 11 7 2 9 9 6 14 -4 7 -2 8 4 4 6 -4 9 -13 6
-21z m-24 -69 c0 -3 -4 -8 -10 -11 -5 -3 -10 -1 -10 4 0 6 5 11 10 11 6 0 10
-2 10 -4z m47 -22 c2 -13 1 -15 -4 -4 -3 8 -11 19 -17 23 -7 6 -6 7 4 4 8 -2
16 -12 17 -23z m-22 -4 c3 -5 1 -10 -4 -10 -6 0 -11 5 -11 10 0 6 2 10 4 10 3
0 8 -4 11 -10z m45 -40 c0 -5 -4 -10 -10 -10 -5 0 -10 5 -10 10 0 6 5 10 10
10 6 0 10 -4 10 -10z m-50 -110 c0 -5 -2 -10 -4 -10 -3 0 -8 5 -11 10 -3 6 -1
10 4 10 6 0 11 -4 11 -10z m38 -15 c-3 -3 -9 2 -12 12 -6 14 -5 15 5 6 7 -7
10 -15 7 -18z m18 -146 c4 -8 1 -8 -14 0 -12 6 -24 16 -28 22 -4 8 -1 8 14 0
12 -6 24 -16 28 -22z m44 1 c8 -5 11 -12 7 -16 -4 -4 -15 0 -24 9 -18 18 -8
23 17 7z m-1812 -27 c7 -7 19 -13 25 -13 7 0 6 5 -3 11 -11 8 -9 9 10 3 14 -4
28 -11 31 -16 4 -6 9 -6 13 1 4 6 14 11 22 11 11 0 14 -6 9 -22 -4 -13 -10
-26 -14 -30 -13 -14 -225 -31 -229 -19 -2 6 -7 9 -11 6 -12 -7 0 43 13 53 6 5
22 13 35 17 21 6 23 5 17 -11 -6 -17 -5 -17 12 2 22 24 51 27 70 7z m129 -55
c-3 -8 -6 -5 -6 6 -1 11 2 17 5 13 3 -3 4 -12 1 -19z m1653 0 c0 -6 -6 -5 -15
2 -8 7 -15 14 -15 16 0 2 7 1 15 -2 8 -4 15 -11 15 -16z m-41 -85 c2 -2 -3 -3
-11 -3 -9 0 -19 7 -22 16 -6 15 -4 15 11 3 10 -7 20 -15 22 -16z m-55 -22 c-2
-3 -12 3 -22 13 -16 17 -16 18 5 5 12 -7 20 -15 17 -18z m-1764 -31 c0 -5 -7
-10 -16 -10 -8 0 -12 5 -9 10 3 6 10 10 16 10 5 0 9 -4 9 -10z m50 -10 c0 -5
-2 -10 -4 -10 -3 0 -8 5 -11 10 -3 6 -1 10 4 10 6 0 11 -4 11 -10z m1721 -15
c11 6 11 5 2 -5 -14 -15 -47 -5 -37 11 5 8 9 8 14 -1 5 -7 14 -9 21 -5z m-106
-5 c3 -5 1 -10 -4 -10 -6 0 -11 5 -11 10 0 6 2 10 4 10 3 0 8 -4 11 -10z m192
-40 c16 0 15 -2 -4 -21 -17 -18 -24 -19 -39 -9 -18 10 -17 11 3 7 35 -8 37 10
3 25 -16 7 -30 17 -30 22 0 4 11 1 25 -8 13 -9 32 -16 42 -16z m-37 -84 c0 -2
-7 -6 -15 -10 -8 -3 -15 -1 -15 4 0 6 7 10 15 10 8 0 15 -2 15 -4z m12 -31 c0
-5 -5 -11 -11 -13 -6 -2 -11 4 -11 13 0 9 5 15 11 13 6 -2 11 -8 11 -13z m-35
-11 c-3 -3 -12 -4 -19 -1 -8 3 -5 6 6 6 11 1 17 -2 13 -5z m8 -33 c3 -6 -3 -9
-14 -8 -11 0 -17 5 -15 9 7 11 22 10 29 -1z m-14 -44 c-10 -9 -11 -8 -5 6 3
10 9 15 12 12 3 -3 0 -11 -7 -18z m-31 -67 c-8 -5 -17 -7 -19 -4 -3 3 1 9 9
14 8 5 17 7 19 4 3 -3 -1 -9 -9 -14z m17 -26 c-3 -3 -12 -4 -19 -1 -8 3 -5 6
6 6 11 1 17 -2 13 -5z m-40 -11 c-4 -3 0 -15 10 -25 15 -17 15 -18 -1 -18 -9
0 -14 5 -11 10 3 6 1 10 -4 10 -6 0 -11 7 -11 15 0 8 5 15 12 15 6 0 8 -3 5
-7z m-30 -9 c-3 -3 -12 -4 -19 -1 -8 3 -5 6 6 6 11 1 17 -2 13 -5z m93 -48 c0
-3 -4 -8 -10 -11 -5 -3 -10 -1 -10 4 0 6 5 11 10 11 6 0 10 -2 10 -4z m-45
-16 c3 -5 1 -10 -4 -10 -6 0 -11 5 -11 10 0 6 2 10 4 10 3 0 8 -4 11 -10z m61
-20 c18 -7 30 -7 39 0 9 7 16 6 24 -4 11 -13 3 -15 -57 -13 -56 2 -66 4 -53
14 20 15 15 15 47 3z m-78 -45 c-3 -3 -9 2 -12 12 -6 14 -5 15 5 6 7 -7 10
-15 7 -18z m119 1 c4 -5 -2 -6 -14 -3 -13 3 -25 2 -27 -2 -3 -4 -19 -7 -38 -8
-20 0 -24 1 -10 4 12 2 20 8 18 12 -7 10 61 7 71 -3z m23 -33 c0 -3 -7 -2 -16
1 -12 5 -15 2 -9 -11 3 -10 7 -22 8 -28 1 -5 9 -15 17 -22 13 -11 13 -12 -3
-13 -10 0 -27 5 -39 11 -25 13 -35 5 -18 -16 18 -22 -4 -19 -24 4 -16 18 -16
19 14 29 24 9 29 8 24 -1 -5 -9 -4 -9 6 0 11 10 11 15 0 28 -14 17 -35 21 -25
5 3 -5 1 -10 -4 -10 -24 0 -9 29 17 32 28 4 52 0 52 -9z m-90 -29 c0 -8 -19
-13 -24 -6 -3 5 1 9 9 9 8 0 15 -2 15 -3z m-1920 -71 c0 -12 -2 -12 -15 0 -8
9 -19 17 -25 19 -6 2 -8 11 -4 21 6 16 8 16 25 -4 11 -12 19 -28 19 -36z
m1965 -53 c8 -13 -5 -13 -25 0 -13 8 -13 10 2 10 9 0 20 -4 23 -10z m-40 -20
c3 -5 -1 -10 -9 -10 -9 0 -16 5 -16 10 0 6 4 10 9 10 6 0 13 -4 16 -10z m30
-63 c4 5 5 2 1 -5 -4 -7 -1 -15 8 -18 9 -3 16 -10 16 -16 0 -12 -45 22 -60 47
-12 19 -12 19 7 2 11 -9 23 -14 28 -10z m49 -14 c4 -9 2 -21 -4 -27 -8 -8 -9
-6 -5 7 4 10 2 17 -4 17 -6 0 -11 5 -11 10 0 16 17 11 24 -7z m-1304 -118 c0
-14 -4 -25 -9 -25 -5 0 -8 8 -6 18 2 9 4 20 4 25 2 19 11 4 11 -18z m1318 -27
c-3 -13 -7 -13 -33 -1 -21 10 -23 13 -7 9 15 -3 22 1 22 12 0 12 3 13 11 5 6
-6 9 -17 7 -25z m37 22 c3 -5 2 -10 -4 -10 -5 0 -13 5 -16 10 -3 6 -2 10 4 10
5 0 13 -4 16 -10z m47 -38 c10 -8 15 -19 12 -23 -3 -5 0 -9 5 -9 6 0 11 -4 11
-10 0 -5 -16 -10 -35 -10 -19 0 -35 5 -35 11 0 6 8 9 19 6 15 -3 17 0 13 17
-3 11 -7 15 -9 9 -2 -6 -12 -9 -23 -6 -22 6 -16 30 8 30 9 0 25 -6 34 -15z
m-55 -45 c-2 -6 -9 -13 -15 -15 -8 -2 -10 3 -5 14 5 13 3 15 -7 9 -8 -5 -11
-4 -6 3 8 14 38 4 33 -11z m-14 -71 c4 -10 1 -13 -8 -9 -8 3 -12 9 -9 14 7 12
11 11 17 -5z m47 -81 c0 -15 -18 -1 -29 23 l-13 27 21 -22 c12 -12 21 -25 21
-28z m67 -24 c14 5 28 7 31 4 3 -3 0 -5 -6 -5 -6 0 -9 -7 -6 -15 4 -8 12 -15
20 -15 16 0 19 -16 5 -24 -5 -3 -14 0 -20 8 -7 8 -27 17 -46 20 -26 5 -35 12
-35 27 0 18 2 19 15 5 12 -12 22 -13 42 -5z m-63 -30 c11 -4 15 -10 9 -14 -5
-3 -19 0 -29 8 -20 15 -11 18 20 6z m146 -101 c11 -11 23 -19 27 -17 4 1 9 -6
11 -16 4 -22 -18 -19 -36 5 -6 9 -26 19 -42 23 -17 4 -30 11 -30 16 0 17 50 9
70 -11z m-25 -28 c-3 -3 -11 0 -18 7 -9 10 -8 11 6 5 10 -3 15 -9 12 -12z
m-80 -20 c-3 -3 -11 0 -18 7 -9 10 -8 11 6 5 10 -3 15 -9 12 -12z m59 -40 c4
-2 2 -8 -5 -13 -16 -10 -35 -12 -26 -2 4 3 2 12 -5 20 -9 11 -7 12 8 7 10 -4
23 -9 28 -12z m-49 -10 c-3 -3 -11 0 -18 7 -9 10 -8 11 6 5 10 -3 15 -9 12
-12z m-30 -32 c3 -5 2 -10 -4 -10 -5 0 -13 5 -16 10 -3 6 -2 10 4 10 5 0 13
-4 16 -10z m85 -30 c-8 -5 -19 -6 -25 -2 -6 4 -3 8 8 10 10 2 14 9 11 15 -4 7
-2 7 7 -1 12 -11 12 -14 -1 -22z m-43 -5 c0 -8 -4 -12 -9 -9 -4 3 -8 9 -8 15
0 5 4 9 8 9 5 0 9 -7 9 -15z m-32 -45 c-3 -5 -12 -10 -18 -10 -7 0 -6 4 3 10
19 12 23 12 15 0z m133 -19 c13 -7 21 -15 19 -18 -3 -2 -15 0 -27 7 -11 6 -28
10 -38 9 -32 -3 -62 1 -62 9 0 12 83 7 108 -7z m-8 -46 c7 -8 8 -15 2 -15 -5
0 -15 7 -22 15 -7 8 -8 15 -2 15 5 0 15 -7 22 -15z m-37 -12 c-22 -8 -14 -25
8 -18 19 6 20 5 8 -8 -12 -13 -16 -13 -28 -2 -14 14 -7 35 12 34 9 0 9 -2 0
-6z m47 -57 c0 -11 -19 -15 -25 -6 -3 5 1 10 9 10 9 0 16 -2 16 -4z m-35 -16
c3 -5 1 -10 -4 -10 -6 0 -11 5 -11 10 0 6 2 10 4 10 3 0 8 -4 11 -10z m-31
-15 c11 -8 16 -18 12 -22 -3 -4 -16 3 -28 15 -25 25 -13 29 16 7z m86 -5 c0
-5 -2 -10 -4 -10 -3 0 -8 5 -11 10 -3 6 -1 10 4 10 6 0 11 -4 11 -10z m-36
-95 c4 -13 2 -14 -14 -5 -11 6 -26 8 -32 4 -7 -4 -8 -3 -4 4 10 17 43 15 50
-3z m69 -16 c5 -20 5 -20 -16 -3 -12 11 -24 20 -26 21 -2 2 5 3 16 3 13 0 23
-8 26 -21z m-89 -8 c11 -4 15 -10 9 -14 -5 -3 -19 0 -29 8 -20 15 -11 18 20 6z
m36 -76 c-7 -8 -17 -15 -22 -15 -11 0 14 29 26 30 5 0 3 -7 -4 -15z m-76 -17
c-3 -4 -9 -8 -15 -8 -5 0 -9 4 -9 8 0 5 7 9 15 9 8 0 12 -4 9 -9z m61 -28 c3
-5 1 -10 -4 -10 -6 0 -11 5 -11 10 0 6 2 10 4 10 3 0 8 -4 11 -10z m55 -15 c0
-11 -29 -11 -33 -1 -4 10 1 12 14 9 10 -3 19 -7 19 -8z m-85 -25 c-3 -5 -14
-10 -23 -9 -14 0 -13 2 3 9 27 11 27 11 20 0z m60 -60 c3 -6 -1 -7 -9 -4 -18
7 -21 14 -7 14 6 0 13 -4 16 -10z m-64 -36 c8 -9 8 -14 1 -14 -6 0 -14 5 -17
10 -3 6 -18 10 -33 10 -19 0 -23 3 -13 9 16 11 47 3 62 -15z m39 -94 c-20 -13
-33 -13 -25 0 3 6 14 10 23 10 15 0 15 -2 2 -10z m-60 -14 c0 -3 -4 -8 -10
-11 -5 -3 -10 -1 -10 4 0 6 5 11 10 11 6 0 10 -2 10 -4z m111 -22 c11 -13 9
-15 -17 -10 -16 4 -23 3 -16 0 18 -9 14 -24 -7 -24 -12 0 -18 7 -17 18 2 33
35 42 57 16z m-154 -50 c-3 -3 -12 -4 -19 -1 -8 3 -5 6 6 6 11 1 17 -2 13 -5z
m-72 -14 c3 -5 2 -10 -4 -10 -5 0 -13 5 -16 10 -3 6 -2 10 4 10 5 0 13 -4 16
-10z m153 -185 c-3 -3 -9 2 -12 12 -6 14 -5 15 5 6 7 -7 10 -15 7 -18z m-8
-35 c0 -5 -2 -10 -4 -10 -3 0 -8 5 -11 10 -3 6 -1 10 4 10 6 0 11 -4 11 -10z"/>
<path d="M4304 5599 c-3 -6 -1 -15 5 -20 6 -5 9 -6 6 -3 -3 4 0 13 6 21 8 9 8
13 1 13 -6 0 -14 -5 -18 -11z"/>
<path d="M4448 5488 c5 -5 16 -8 23 -6 8 3 3 7 -10 11 -17 4 -21 3 -13 -5z"/>
<path d="M1610 5380 c0 -5 5 -10 11 -10 5 0 7 5 4 10 -3 6 -8 10 -11 10 -2 0
-4 -4 -4 -10z"/>
<path d="M4800 5332 c0 -4 10 -9 22 -9 18 -2 20 0 8 7 -18 12 -30 13 -30 2z"/>
<path d="M4980 5226 c0 -2 7 -7 16 -10 8 -3 12 -2 9 4 -6 10 -25 14 -25 6z"/>
<path d="M5058 5203 c-10 -2 -18 -11 -18 -19 0 -20 13 -17 28 6 7 11 11 19 10
19 -2 -1 -11 -3 -20 -6z"/>
<path d="M1470 5159 c0 -5 5 -7 10 -4 6 3 10 8 10 11 0 2 -4 4 -10 4 -5 0 -10
-5 -10 -11z"/>
<path d="M1490 5090 c-9 -6 -10 -10 -3 -10 6 0 15 5 18 10 8 12 4 12 -15 0z"/>
<path d="M1530 5090 c0 -5 7 -7 15 -4 8 4 15 8 15 10 0 2 -7 4 -15 4 -8 0 -15
-4 -15 -10z"/>
<path d="M5210 5039 c0 -5 5 -7 10 -4 6 3 10 8 10 11 0 2 -4 4 -10 4 -5 0 -10
-5 -10 -11z"/>
<path d="M5250 4982 c1 -15 26 -37 43 -38 26 -2 21 9 -13 28 -17 9 -30 14 -30
10z"/>
<path d="M5240 4948 c0 -22 17 -42 24 -29 4 6 2 11 -4 11 -6 0 -9 4 -5 9 3 5
1 12 -5 16 -5 3 -10 0 -10 -7z"/>
<path d="M5406 4877 c3 -10 9 -15 12 -12 3 3 0 11 -7 18 -10 9 -11 8 -5 -6z"/>
<path d="M5440 4879 c0 -5 5 -7 10 -4 6 3 10 8 10 11 0 2 -4 4 -10 4 -5 0 -10
-5 -10 -11z"/>
<path d="M5417 4767 c-3 -9 1 -14 11 -13 11 1 16 -6 16 -17 -2 -14 1 -15 12
-6 7 6 18 8 23 5 5 -4 12 -2 16 4 6 9 -8 15 -29 11 -5 -1 -16 5 -26 14 -15 13
-18 14 -23 2z"/>
<path d="M5400 4701 c0 -5 11 -8 25 -8 30 0 28 6 -4 12 -11 2 -21 0 -21 -4z"/>
<path d="M5408 4673 c7 -3 16 -2 19 1 4 3 -2 6 -13 5 -11 0 -14 -3 -6 -6z"/>
<path d="M5437 4638 c-15 -12 -14 -13 13 -14 17 -1 29 3 27 9 -5 17 -21 18
-40 5z"/>
<path d="M5443 4609 c3 -9 0 -22 -6 -28 -8 -8 -6 -11 7 -11 9 0 14 5 11 10 -8
13 1 13 25 0 13 -7 19 -6 24 5 4 11 -1 15 -17 15 -13 0 -29 6 -36 13 -11 10
-13 9 -8 -4z"/>
<path d="M5535 4560 c3 -5 10 -10 16 -10 5 0 9 5 9 10 0 6 -7 10 -16 10 -8 0
-12 -4 -9 -10z"/>
<path d="M1526 4503 c-6 -14 -5 -15 5 -6 7 7 10 15 7 18 -3 3 -9 -2 -12 -12z"/>
<path d="M5537 4509 c7 -7 15 -10 18 -7 3 3 -2 9 -12 12 -14 6 -15 5 -6 -5z"/>
<path d="M5505 4450 c-3 -6 1 -7 9 -4 18 7 21 14 7 14 -6 0 -13 -4 -16 -10z"/>
<path d="M2040 4435 c-7 -9 -11 -18 -8 -20 3 -3 11 1 18 10 7 9 11 18 8 20 -3
3 -11 -1 -18 -10z"/>
<path d="M5547 4429 c7 -7 15 -10 18 -7 3 3 -2 9 -12 12 -14 6 -15 5 -6 -5z"/>
<path d="M5538 4363 c7 -3 16 -2 19 1 4 3 -2 6 -13 5 -11 0 -14 -3 -6 -6z"/>
<path d="M5508 4343 c7 -3 16 -2 19 1 4 3 -2 6 -13 5 -11 0 -14 -3 -6 -6z"/>
<path d="M2465 4301 c-3 -3 -22 -4 -41 -2 -24 2 -34 -1 -32 -10 2 -9 -9 -12
-40 -10 -30 2 -42 -1 -40 -10 2 -8 -7 -14 -22 -14 -14 0 -31 -5 -39 -9 -8 -5
-28 -12 -45 -16 -17 -4 -30 -12 -28 -19 1 -6 -3 -11 -10 -9 -7 2 -31 -12 -54
-30 -45 -36 -96 -99 -73 -90 9 4 14 -2 15 -18 1 -13 -3 -24 -10 -24 -6 0 -3
-5 7 -11 18 -10 24 -49 8 -49 -6 0 -9 -9 -8 -19 1 -20 42 -46 65 -42 6 1 12
-2 12 -7 0 -5 11 -14 25 -20 20 -9 25 -19 25 -46 0 -18 6 -38 13 -44 14 -12
68 -11 60 1 -2 4 0 7 6 7 5 0 11 -6 14 -12 3 -10 7 -10 20 1 11 9 17 10 17 2
0 -15 24 -14 68 4 29 13 34 18 22 25 -9 6 -10 10 -3 10 6 0 9 9 6 20 -4 14 0
20 11 20 9 0 16 -5 16 -11 0 -6 6 -9 13 -6 6 2 20 -3 30 -11 34 -30 137 -7
156 34 6 14 11 38 11 54 0 35 17 39 50 10 13 -11 29 -20 35 -20 7 0 16 -7 19
-16 8 -21 9 -21 -15 -20 -12 1 -24 -4 -26 -10 -3 -10 13 -11 50 -5 4 0 7 7 7
15 0 17 28 41 38 32 4 -4 -2 -14 -12 -22 -16 -11 -17 -14 -4 -14 8 0 21 7 28
15 16 19 4 34 -45 61 -45 24 -46 37 -1 19 24 -10 37 -11 41 -4 5 7 15 5 31 -5
35 -24 39 -20 39 35 -1 49 -3 52 -47 86 -42 31 -47 38 -41 64 3 19 1 29 -6 29
-9 0 -10 14 -6 48 5 37 4 43 -5 29 -13 -21 -30 -14 -30 13 0 10 -4 21 -9 24
-5 3 -8 -8 -7 -24 1 -17 -1 -30 -6 -30 -4 0 -9 12 -9 28 -2 24 -2 23 -9 -8 -6
-30 -8 -31 -9 -9 0 15 -9 33 -18 40 -15 12 -16 12 -10 -6 7 -19 6 -19 -7 -2
-18 23 -29 22 -21 -4 5 -15 4 -19 -4 -15 -6 4 -11 14 -11 22 0 8 -4 14 -10 14
-5 0 -10 -10 -10 -22 -1 -22 -1 -22 -15 -4 -10 13 -29 19 -64 21 -28 1 -53 0
-56 -4z m291 -96 c-7 -19 -36 -8 -36 14 0 12 2 13 9 3 6 -11 10 -10 16 5 9 22
20 1 11 -22z m-248 -56 c5 15 29 14 35 -1 3 -10 10 -10 28 1 23 13 23 13 7 -5
-9 -10 -18 -30 -20 -43 -3 -22 -13 -27 -88 -46 -86 -22 -214 -69 -237 -87 -7
-6 -19 -8 -28 -4 -8 3 -14 2 -14 -2 4 -24 -4 -22 -24 6 -13 17 -26 29 -29 27
-3 -3 -16 -1 -29 4 -21 8 -17 10 24 10 26 1 47 6 47 11 0 6 -8 10 -17 10 -16
1 -16 2 -2 10 8 5 28 11 45 14 16 2 31 5 34 6 3 1 8 2 12 1 11 -1 88 40 88 48
0 7 72 31 95 31 8 0 15 4 15 10 0 6 10 6 27 -1 19 -7 29 -7 31 0z m139 -101
l28 -12 -30 -3 c-16 -2 -39 -8 -50 -13 -11 -4 -42 -11 -68 -14 -27 -3 -74 -18
-105 -34 -84 -41 -123 -27 -59 22 71 54 218 82 284 54z m-527 -68 c0 -5 -7 -7
-15 -4 -8 4 -15 8 -15 10 0 2 7 4 15 4 8 0 15 -4 15 -10z m396 -37 c-10 -10
-19 5 -10 18 6 11 8 11 12 0 2 -7 1 -15 -2 -18z"/>
<path d="M1506 4285 c-3 -8 -1 -15 4 -15 6 0 10 7 10 15 0 8 -2 15 -4 15 -2 0
-6 -7 -10 -15z"/>
<path d="M5470 4296 c0 -2 9 -6 20 -9 11 -3 20 -1 20 4 0 5 -9 9 -20 9 -11 0
-20 -2 -20 -4z"/>
<path d="M5500 4230 c-9 -6 -10 -10 -3 -10 6 0 15 5 18 10 8 12 4 12 -15 0z"/>
<path d="M5454 4207 c-4 -7 -4 -9 1 -5 4 4 14 3 22 -3 8 -7 13 -8 13 -1 0 15
-28 23 -36 9z"/>
<path d="M5500 4130 c0 -6 7 -10 15 -10 8 0 15 2 15 4 0 2 -7 6 -15 10 -8 3
-15 1 -15 -4z"/>
<path d="M1522 4040 c0 -14 2 -19 5 -12 2 6 2 18 0 25 -3 6 -5 1 -5 -13z"/>
<path d="M1430 4029 c0 -5 5 -7 10 -4 6 3 10 8 10 11 0 2 -4 4 -10 4 -5 0 -10
-5 -10 -11z"/>
<path d="M5475 4030 c-3 -5 -1 -10 4 -10 6 0 11 5 11 10 0 6 -2 10 -4 10 -3 0
-8 -4 -11 -10z"/>
<path d="M5440 3966 c0 -2 7 -9 15 -16 12 -10 15 -10 15 4 0 9 -7 16 -15 16
-8 0 -15 -2 -15 -4z"/>
<path d="M1285 3949 c-4 -6 -5 -12 -2 -15 2 -3 7 2 10 11 7 17 1 20 -8 4z"/>
<path d="M5420 3936 c0 -9 5 -16 10 -16 6 0 10 4 10 9 0 6 -4 13 -10 16 -5 3
-10 -1 -10 -9z"/>
<path d="M5435 3910 c-7 -12 12 -12 40 0 18 8 17 9 -7 9 -15 1 -30 -3 -33 -9z"/>
<path d="M5507 3889 c7 -7 15 -10 18 -7 3 3 -2 9 -12 12 -14 6 -15 5 -6 -5z"/>
<path d="M5410 3869 c0 -6 7 -9 15 -6 8 4 17 2 20 -3 4 -6 11 -10 17 -10 7 0
6 6 -2 15 -14 17 -50 20 -50 4z"/>
<path d="M5480 3860 c0 -5 7 -7 15 -4 8 4 15 8 15 10 0 2 -7 4 -15 4 -8 0 -15
-4 -15 -10z"/>
<path d="M1685 3840 c-3 -6 1 -7 9 -4 18 7 21 14 7 14 -6 0 -13 -4 -16 -10z"/>
<path d="M1590 3825 c0 -12 67 -7 75 5 3 4 -13 7 -35 6 -22 0 -40 -6 -40 -11z"/>
<path d="M2423 3823 c-1 -15 6 -19 30 -20 19 -1 24 1 12 4 -11 3 -24 12 -30
20 -9 12 -11 11 -12 -4z"/>
<path d="M2645 3830 c-3 -5 -1 -10 4 -10 6 0 11 5 11 10 0 6 -2 10 -4 10 -3 0
-8 -4 -11 -10z"/>
<path d="M2704 3824 c-18 -14 -18 -15 4 -4 12 6 22 13 22 15 0 8 -5 6 -26 -11z"/>
<path d="M2590 3820 c0 -5 -6 -7 -14 -4 -8 3 -17 1 -20 -4 -3 -6 -15 -8 -26
-5 -11 3 -20 0 -20 -6 0 -8 17 -10 50 -7 29 3 52 0 56 -6 4 -6 9 -5 15 3 4 8
3 19 -3 26 -12 15 -38 17 -38 3z"/>
<path d="M5470 3821 c0 -9 38 -12 44 -3 2 4 -7 8 -20 8 -13 1 -24 -1 -24 -5z"/>
<path d="M2725 3794 c-11 -8 -25 -12 -33 -9 -7 2 -10 0 -7 -5 8 -13 -1 -13
-27 1 -13 7 -18 7 -14 0 4 -5 -2 -15 -13 -20 -14 -8 -21 -8 -24 2 -4 9 -6 9
-6 0 -1 -7 -7 -13 -14 -13 -8 0 -28 -7 -46 -16 -31 -16 -97 -19 -183 -9 -21 2
-40 0 -43 -6 -4 -5 9 -9 28 -9 19 0 53 -6 75 -14 35 -13 49 -13 107 1 86 19
162 51 205 85 36 28 31 39 -5 12z"/>
<path d="M1755 3723 c10 -16 26 -35 35 -43 10 -8 27 -30 38 -48 l19 -33 6 28
c7 33 -14 68 -63 101 -44 30 -56 28 -35 -5z"/>
<path d="M5376 3736 c3 -9 15 -16 27 -16 18 0 17 15 -1 15 -4 0 -13 4 -19 8
-9 6 -11 3 -7 -7z"/>
<path d="M5470 3720 c-12 -7 -10 -9 8 -7 12 0 22 5 22 9 0 11 -12 10 -30 -2z"/>
<path d="M5408 3703 c6 -2 18 -2 25 0 6 3 1 5 -13 5 -14 0 -19 -2 -12 -5z"/>
<path d="M5478 3662 c15 -16 20 -15 25 4 1 4 -8 9 -20 10 -22 4 -22 3 -5 -14z"/>
<path d="M1880 3648 c0 -19 36 -52 49 -44 5 3 21 -8 35 -26 16 -20 26 -27 26
-18 0 21 -59 92 -71 84 -6 -3 -16 0 -24 6 -12 10 -15 9 -15 -2z"/>
<path d="M1539 3619 c-10 -6 -7 -9 14 -9 29 0 35 5 14 13 -8 3 -20 1 -28 -4z"/>
<path d="M5468 3593 c6 -2 10 -9 6 -14 -3 -5 -1 -9 5 -9 17 0 21 18 5 24 -9 3
-19 6 -22 5 -4 0 -1 -3 6 -6z"/>
<path d="M1926 3572 c-7 -22 8 -62 24 -62 20 0 21 22 2 52 -19 29 -20 30 -26
10z"/>
<path d="M1730 3570 c-9 -6 -10 -10 -3 -10 6 0 15 5 18 10 8 12 4 12 -15 0z"/>
<path d="M1690 3559 c0 -5 5 -7 10 -4 6 3 10 8 10 11 0 2 -4 4 -10 4 -5 0 -10
-5 -10 -11z"/>
<path d="M1657 3553 c-4 -3 -7 -11 -7 -17 0 -6 5 -5 12 2 6 6 9 14 7 17 -3 3
-9 2 -12 -2z"/>
<path d="M5502 3546 c7 -7 19 -11 27 -8 11 4 10 7 -5 13 -29 12 -36 10 -22 -5z"/>
<path d="M5590 3510 c8 -5 20 -10 25 -10 6 0 3 5 -5 10 -8 5 -19 10 -25 10 -5
0 -3 -5 5 -10z"/>
<path d="M1555 3479 c-4 -6 -5 -12 -2 -15 2 -3 7 2 10 11 7 17 1 20 -8 4z"/>
<path d="M5533 3435 c28 -25 67 -34 67 -14 0 5 -4 8 -9 4 -6 -3 -27 4 -48 15
l-38 21 28 -26z"/>
<path d="M2810 3401 c0 -5 -15 -14 -34 -21 -21 -7 -36 -19 -40 -32 -7 -30 -3
-31 24 -8 13 11 31 20 40 20 12 0 18 8 18 25 0 14 -2 25 -4 25 -2 0 -4 -4 -4
-9z"/>
<path d="M5576 3387 c3 -10 9 -15 12 -12 3 3 0 11 -7 18 -10 9 -11 8 -5 -6z"/>
<path d="M1785 3380 c-3 -6 1 -7 9 -4 18 7 21 14 7 14 -6 0 -13 -4 -16 -10z"/>
<path d="M5460 3375 c0 -7 5 -17 12 -21 7 -4 8 -3 4 4 -4 7 -1 12 8 12 8 0 18
-4 21 -10 3 -5 14 -10 23 -10 12 0 9 4 -8 13 -47 24 -60 27 -60 12z"/>
<path d="M5536 3381 c-3 -5 1 -11 9 -15 9 -3 15 0 15 9 0 16 -16 20 -24 6z"/>
<path d="M5580 3352 c0 -7 -4 -11 -9 -7 -5 3 -12 1 -15 -4 -3 -5 11 -9 32 -9
20 0 30 3 22 6 -8 3 -18 10 -22 16 -5 7 -8 7 -8 -2z"/>
<path d="M5655 3351 c-3 -6 3 -9 14 -8 11 0 17 5 15 9 -7 11 -22 10 -29 -1z"/>
<path d="M1650 3289 c0 -5 5 -7 10 -4 6 3 10 8 10 11 0 2 -4 4 -10 4 -5 0 -10
-5 -10 -11z"/>
<path d="M1697 3293 c-4 -3 -7 -11 -7 -17 0 -6 5 -5 12 2 6 6 9 14 7 17 -3 3
-9 2 -12 -2z"/>
<path d="M3997 3293 c-4 -3 -7 -11 -7 -17 0 -6 5 -5 12 2 6 6 9 14 7 17 -3 3
-9 2 -12 -2z"/>
<path d="M1775 3239 c-4 -6 -5 -12 -2 -15 2 -3 7 2 10 11 7 17 1 20 -8 4z"/>
<path d="M1650 3200 c-8 -5 -12 -11 -9 -14 2 -3 11 -1 19 4 8 5 12 11 9 14 -2
3 -11 1 -19 -4z"/>
<path d="M5626 3201 c-12 -5 -15 -10 -9 -14 6 -4 16 0 23 8 14 17 13 17 -14 6z"/>
<path d="M5592 3164 c10 -10 20 -15 24 -12 3 4 -5 12 -18 18 -22 12 -22 12 -6
-6z"/>
<path d="M1843 3155 c-9 -24 1 -27 15 -5 8 13 8 20 2 20 -6 0 -13 -7 -17 -15z"/>
<path d="M3575 3161 c6 -10 2 -12 -15 -6 -21 7 -21 6 -5 -18 14 -23 14 -25 -1
-31 -9 -3 -23 -1 -30 5 -12 10 -13 8 -8 -5 5 -13 2 -17 -12 -16 -10 1 -21 1
-24 0 -17 -6 -68 -5 -82 2 -10 5 -18 5 -18 1 0 -11 -58 -36 -105 -44 -22 -4
-69 -13 -105 -20 -36 -8 -108 -14 -160 -14 -62 0 -100 -4 -108 -12 -7 -7 -20
-13 -28 -13 -8 0 -33 -9 -54 -19 -22 -11 -42 -15 -46 -10 -10 18 -23 9 -49
-34 -28 -49 -32 -89 -10 -107 12 -10 16 -9 21 4 8 21 50 20 66 -1 20 -28 151
-129 176 -137 26 -9 93 -17 74 -9 -6 2 -9 9 -6 14 3 6 0 16 -6 24 -10 12 -4
16 33 26 44 11 64 30 51 50 -3 5 -10 7 -15 3 -14 -8 -134 -8 -148 0 -6 4 -16
4 -22 1 -5 -4 -19 1 -31 12 -11 10 -23 17 -27 15 -3 -2 -7 4 -9 12 -2 9 1 16
6 16 6 0 8 9 5 20 -6 23 0 25 28 10 16 -9 19 -7 19 14 0 25 7 29 61 40 8 2 26
8 40 14 14 5 70 9 125 7 70 -2 107 1 126 11 35 18 57 18 79 -2 16 -14 19 -14
38 5 27 27 37 26 66 -5 22 -24 24 -24 30 -5 7 24 33 35 51 20 8 -6 14 -29 14
-50 0 -44 -22 -64 -52 -45 -16 9 -21 8 -29 -6 -18 -32 -48 -42 -70 -22 -18 16
-19 16 -19 0 0 -20 -34 -68 -47 -66 -4 1 -9 -3 -11 -8 -2 -6 6 -8 18 -5 27 7
76 -17 58 -29 -10 -6 -10 -8 0 -8 10 0 10 -3 -2 -15 -8 -8 -21 -15 -29 -15 -8
0 -20 -7 -28 -16 -7 -8 -20 -13 -29 -11 -9 2 -28 -2 -41 -9 -21 -11 -13 -12
61 -8 63 4 97 11 131 29 26 13 49 21 53 18 3 -4 6 -1 6 5 0 6 7 9 15 6 8 -4
15 -1 15 5 0 6 8 11 18 11 21 0 56 52 73 107 6 23 19 50 28 60 9 10 22 30 30
46 8 15 20 27 27 27 7 0 16 5 19 10 7 11 -44 112 -54 106 -4 -3 -31 -1 -61 2
-51 7 -55 9 -55 34 -1 15 -5 31 -10 35 -4 4 -5 2 0 -6z"/>
<path d="M1800 3125 c-7 -9 -11 -17 -9 -20 3 -2 10 5 17 15 14 24 10 26 -8 5z"/>
<path d="M5598 3133 c7 -3 16 -2 19 1 4 3 -2 6 -13 5 -11 0 -14 -3 -6 -6z"/>
<path d="M5638 3133 c7 -3 16 -2 19 1 4 3 -2 6 -13 5 -11 0 -14 -3 -6 -6z"/>
<path d="M1699 3103 l-24 -28 28 24 c25 23 32 31 24 31 -2 0 -14 -12 -28 -27z"/>
<path d="M1844 3115 c-10 -8 -14 -15 -8 -15 6 0 17 7 24 15 16 19 9 19 -16 0z"/>
<path d="M1630 3090 c8 -5 22 -9 30 -9 10 0 8 3 -5 9 -27 12 -43 12 -25 0z"/>
<path d="M5655 3080 c-13 -6 -15 -9 -5 -9 8 0 22 4 30 9 18 12 2 12 -25 0z"/>
<path d="M1759 3063 c-13 -16 -12 -17 4 -4 9 7 17 15 17 17 0 8 -8 3 -21 -13z"/>
<path d="M5627 3053 c-3 -5 6 -9 19 -9 13 -1 21 2 18 7 -6 11 -31 12 -37 2z"/>
<path d="M2014 3029 c10 -6 38 -9 63 -6 44 5 45 4 39 -22 -6 -25 -6 -25 9 -7
29 38 20 46 -57 46 -58 -1 -69 -3 -54 -11z"/>
<path d="M1805 3010 c-3 -5 -1 -10 4 -10 6 0 11 5 11 10 0 6 -2 10 -4 10 -3 0
-8 -4 -11 -10z"/>
<path d="M1879 3003 c-13 -16 -12 -17 4 -4 9 7 17 15 17 17 0 8 -8 3 -21 -13z"/>
<path d="M1925 3009 c-4 -6 -5 -12 -2 -15 2 -3 7 2 10 11 7 17 1 20 -8 4z"/>
<path d="M2020 2985 c-9 -11 -10 -19 -3 -26 8 -8 13 -5 18 11 9 28 2 35 -15
15z"/>
<path d="M2070 2990 c-8 -5 -12 -12 -9 -15 4 -3 12 1 19 10 14 17 11 19 -10 5z"/>
<path d="M5620 2988 c0 -14 25 -19 51 -10 22 9 21 10 -14 14 -20 2 -37 0 -37
-4z"/>
<path d="M1460 2960 c-13 -8 -12 -10 3 -10 9 0 17 5 17 10 0 12 -1 12 -20 0z"/>
<path d="M1525 2959 c-4 -6 -5 -12 -2 -15 2 -3 7 2 10 11 7 17 1 20 -8 4z"/>
<path d="M1981 2961 c-8 -5 -9 -11 -3 -15 5 -3 12 1 16 9 6 17 6 18 -13 6z"/>
<path d="M5650 2950 c13 -8 13 -10 1 -10 -8 0 -12 -2 -9 -5 7 -8 68 6 63 15
-2 4 -19 7 -37 8 -23 1 -28 -2 -18 -8z"/>
<path d="M1925 2940 c-3 -5 -1 -10 4 -10 6 0 11 5 11 10 0 6 -2 10 -4 10 -3 0
-8 -4 -11 -10z"/>
<path d="M1844 2908 l-19 -23 23 19 c21 18 27 26 19 26 -2 0 -12 -10 -23 -22z"/>
<path d="M5690 2926 c0 -3 9 -10 20 -16 11 -6 20 -8 20 -6 0 3 -9 10 -20 16
-11 6 -20 8 -20 6z"/>
<path d="M1630 2910 c0 -5 7 -7 15 -4 8 4 15 8 15 10 0 2 -7 4 -15 4 -8 0 -15
-4 -15 -10z"/>
<path d="M5760 2910 c0 -5 7 -7 15 -4 8 4 15 8 15 10 0 2 -7 4 -15 4 -8 0 -15
-4 -15 -10z"/>
<path d="M1757 2871 c-4 -17 -3 -21 5 -13 5 5 8 16 6 23 -3 8 -7 3 -11 -10z"/>
<path d="M5640 2874 c0 -11 29 -34 44 -34 9 0 16 -5 16 -11 0 -7 10 -9 24 -5
19 5 26 1 31 -13 3 -11 12 -22 20 -25 9 -3 12 0 8 10 -3 7 -9 14 -13 14 -4 0
-10 9 -13 21 -4 17 -9 19 -24 10 -15 -8 -26 -4 -49 14 -29 24 -44 31 -44 19z"/>
<path d="M2105 2860 c-3 -5 -1 -10 4 -10 6 0 11 5 11 10 0 6 -2 10 -4 10 -3 0
-8 -4 -11 -10z"/>
<path d="M2160 2860 c-13 -8 -13 -10 2 -10 9 0 20 5 23 10 8 13 -5 13 -25 0z"/>
<path d="M1669 2843 c-13 -16 -12 -17 4 -4 9 7 17 15 17 17 0 8 -8 3 -21 -13z"/>
<path d="M2130 2814 c0 -10 -6 -14 -15 -10 -11 4 -15 -1 -14 -17 0 -12 3 -16
6 -9 2 6 11 12 19 12 8 0 14 9 14 20 0 11 -2 20 -5 20 -3 0 -5 -7 -5 -16z"/>
<path d="M3253 2802 c-3 -12 -12 -22 -21 -22 -13 0 -12 -3 4 -14 18 -13 20
-12 26 17 7 36 0 53 -9 19z"/>
<path d="M1880 2795 c0 -8 4 -15 10 -15 5 0 7 7 4 15 -4 8 -8 15 -10 15 -2 0
-4 -7 -4 -15z"/>
<path d="M2031 2793 c0 -6 -4 -20 -7 -30 -5 -14 -4 -15 5 -7 7 7 11 20 8 30
-3 11 -5 14 -6 7z"/>
<path d="M2155 2789 c-4 -6 -5 -12 -2 -15 2 -3 7 2 10 11 7 17 1 20 -8 4z"/>
<path d="M3275 2770 c4 -6 11 -8 16 -5 14 9 11 15 -7 15 -8 0 -12 -5 -9 -10z"/>
<path d="M1650 2744 l-25 -25 28 12 c15 7 27 18 27 26 0 17 0 17 -30 -13z"/>
<path d="M1761 2733 c0 -13 -5 -23 -11 -23 -5 0 -10 -5 -10 -12 0 -8 6 -7 16
4 9 8 14 24 11 34 -4 16 -5 15 -6 -3z"/>
<path d="M2220 2744 c0 -7 -10 -14 -22 -17 -12 -4 -19 -9 -16 -12 3 -4 16 -2
27 5 16 8 21 8 21 -1 0 -7 3 -10 6 -6 3 3 1 14 -5 24 -6 10 -11 13 -11 7z"/>
<path d="M1709 2723 c-12 -16 -12 -17 1 -7 8 6 22 14 30 17 13 5 12 6 -1 6 -9
1 -23 -7 -30 -16z"/>
<path d="M1796 2723 c-6 -14 -5 -15 5 -6 7 7 10 15 7 18 -3 3 -9 -2 -12 -12z"/>
<path d="M2030 2720 c-12 -8 -11 -10 8 -10 12 0 22 5 22 10 0 13 -11 13 -30 0z"/>
<path d="M2095 2710 c-3 -5 -1 -10 4 -10 6 0 11 5 11 10 0 6 -2 10 -4 10 -3 0
-8 -4 -11 -10z"/>
<path d="M5744 2705 c23 -18 33 -19 41 -5 3 6 -1 7 -9 4 -9 -3 -16 -1 -16 5 0
6 -8 11 -17 11 -16 -1 -16 -2 1 -15z"/>
<path d="M2145 2691 c-6 -5 -21 -11 -35 -13 -16 -2 -26 -10 -27 -23 -1 -16 -1
-16 3 -2 4 11 15 17 34 17 16 0 30 7 34 15 6 17 4 19 -9 6z"/>
<path d="M5815 2680 c-3 -5 -1 -10 4 -10 6 0 11 5 11 10 0 6 -2 10 -4 10 -3 0
-8 -4 -11 -10z"/>
<path d="M2040 2669 c0 -5 5 -7 10 -4 6 3 10 8 10 11 0 2 -4 4 -10 4 -5 0 -10
-5 -10 -11z"/>
<path d="M5685 2670 c3 -5 8 -10 11 -10 2 0 4 5 4 10 0 6 -5 10 -11 10 -5 0
-7 -4 -4 -10z"/>
<path d="M2215 2655 c-18 -8 -23 -14 -13 -14 9 -1 18 -5 20 -11 2 -5 8 2 15
15 6 14 10 25 10 25 -1 -1 -15 -7 -32 -15z"/>
<path d="M3156 2658 c6 -9 44 -6 44 3 0 4 -11 6 -24 5 -13 0 -22 -4 -20 -8z"/>
<path d="M3220 2660 c0 -5 4 -10 9 -10 6 0 13 5 16 10 3 6 -1 10 -9 10 -9 0
-16 -4 -16 -10z"/>
<path d="M5661 2639 c9 -14 28 -25 44 -27 16 -2 39 -11 52 -19 17 -11 27 -13
36 -4 8 6 18 7 22 3 5 -4 5 -1 1 6 -5 7 -14 11 -21 8 -20 -7 -26 5 -12 22 10
13 9 14 -10 3 -16 -8 -29 -9 -42 -2 -10 6 -21 8 -24 4 -4 -3 -19 2 -34 12
l-28 19 16 -25z"/>
<path d="M2256 2638 c3 -5 10 -6 15 -3 13 9 11 12 -6 12 -8 0 -12 -4 -9 -9z"/>
<path d="M1555 2630 c-3 -6 1 -7 9 -4 18 7 21 14 7 14 -6 0 -13 -4 -16 -10z"/>
<path d="M2157 2633 c-4 -3 -7 -11 -7 -17 0 -6 5 -5 12 2 6 6 9 14 7 17 -3 3
-9 2 -12 -2z"/>
<path d="M2006 2614 c-9 -24 -2 -26 12 -4 7 11 8 20 3 20 -5 0 -12 -7 -15 -16z"/>
<path d="M1880 2604 c-17 -9 -20 -14 -9 -14 9 0 22 7 29 15 15 18 13 18 -20
-1z"/>
<path d="M2245 2600 c-16 -17 -16 -20 -3 -15 9 4 19 13 22 21 7 19 2 18 -19
-6z"/>
<path d="M2197 2591 c-4 -17 -3 -21 5 -13 5 5 8 16 6 23 -3 8 -7 3 -11 -10z"/>
<path d="M3860 2599 c0 -5 5 -7 10 -4 6 3 10 8 10 11 0 2 -4 4 -10 4 -5 0 -10
-5 -10 -11z"/>
<path d="M1967 2570 c-3 -11 -2 -20 3 -20 4 0 10 9 13 20 3 11 2 20 -3 20 -4
0 -10 -9 -13 -20z"/>
<path d="M2146 2574 c-4 -9 -4 -19 -1 -22 2 -3 7 3 11 12 4 9 4 19 1 22 -2 3
-7 -3 -11 -12z"/>
<path d="M5720 2580 c0 -5 5 -10 11 -10 5 0 7 5 4 10 -3 6 -8 10 -11 10 -2 0
-4 -4 -4 -10z"/>
<path d="M2080 2570 c-8 -5 -10 -10 -5 -10 6 0 17 5 25 10 8 5 11 10 5 10 -5
0 -17 -5 -25 -10z"/>
<path d="M2287 2564 c-3 -3 -3 -13 0 -21 5 -12 7 -12 14 -1 15 23 4 40 -14 22z"/>
<path d="M1876 2543 c-6 -14 -5 -15 5 -6 7 7 10 15 7 18 -3 3 -9 -2 -12 -12z"/>
<path d="M2331 2528 c-1 -40 4 -44 29 -28 13 8 13 10 -2 10 -10 0 -18 10 -21
28 -3 22 -4 20 -6 -10z"/>
<path d="M1655 2540 c-3 -5 -1 -10 4 -10 6 0 11 5 11 10 0 6 -2 10 -4 10 -3 0
-8 -4 -11 -10z"/>
<path d="M2259 2513 c-13 -16 -12 -17 4 -4 9 7 17 15 17 17 0 8 -8 3 -21 -13z"/>
<path d="M1744 2511 c4 -5 1 -12 -4 -14 -6 -3 -5 -4 2 -3 15 3 23 26 8 26 -6
0 -9 -4 -6 -9z"/>
<path d="M2150 2510 c-8 -5 -12 -11 -9 -14 2 -3 11 -1 19 4 8 5 12 11 9 14 -2
3 -11 1 -19 -4z"/>
<path d="M5700 2479 c0 -5 5 -7 10 -4 6 3 10 8 10 11 0 2 -4 4 -10 4 -5 0 -10
-5 -10 -11z"/>
<path d="M2325 2469 c-11 -16 -1 -19 13 -3 7 8 8 14 3 14 -5 0 -13 -5 -16 -11z"/>
<path d="M5735 2470 c-3 -6 1 -7 9 -4 18 7 21 14 7 14 -6 0 -13 -4 -16 -10z"/>
<path d="M5766 2464 c-6 -15 -4 -15 11 -3 10 7 20 15 22 16 2 2 -3 3 -11 3 -9
0 -19 -7 -22 -16z"/>
<path d="M2290 2459 c0 -5 5 -7 10 -4 6 3 10 8 10 11 0 2 -4 4 -10 4 -5 0 -10
-5 -10 -11z"/>
<path d="M1870 2440 c-13 -8 -12 -10 3 -10 9 0 17 5 17 10 0 12 -1 12 -20 0z"/>
<path d="M2360 2435 c-7 -9 -8 -15 -2 -15 5 0 12 7 16 15 3 8 4 15 2 15 -2 0
-9 -7 -16 -15z"/>
<path d="M5790 2440 c-13 -8 -12 -10 3 -10 9 0 17 5 17 10 0 12 -1 12 -20 0z"/>
<path d="M2289 2403 c-11 -15 -11 -16 1 -5 21 18 34 15 19 -5 -13 -16 -12 -17
4 -4 9 7 17 17 17 22 0 15 -27 10 -41 -8z"/>
<path d="M2087 2398 c-11 -9 -14 -18 -8 -27 6 -9 11 -10 15 -2 4 6 2 11 -5 11
-7 0 -4 7 7 15 10 8 16 15 13 15 -3 0 -13 -6 -22 -12z"/>
<path d="M2210 2380 c-13 -8 -12 -10 3 -10 9 0 17 5 17 10 0 12 -1 12 -20 0z"/>
<path d="M5666 2382 c-3 -5 1 -9 9 -9 8 0 15 4 15 9 0 4 -4 8 -9 8 -6 0 -12
-4 -15 -8z"/>
<path d="M1790 2359 c0 -5 5 -7 10 -4 6 3 10 8 10 11 0 2 -4 4 -10 4 -5 0 -10
-5 -10 -11z"/>
<path d="M5780 2366 c0 -2 11 -6 25 -8 14 -3 25 -1 25 3 0 5 -11 9 -25 9 -14
0 -25 -2 -25 -4z"/>
<path d="M1879 2343 c-13 -15 -12 -15 9 -4 23 12 28 21 13 21 -5 0 -15 -7 -22
-17z"/>
<path d="M1995 2330 c-3 -6 1 -7 9 -4 18 7 21 14 7 14 -6 0 -13 -4 -16 -10z"/>
<path d="M2370 2298 c0 -19 2 -20 10 -8 13 19 13 30 0 30 -5 0 -10 -10 -10
-22z"/>
<path d="M2100 2302 c-16 -7 -25 -32 -12 -32 4 0 13 9 20 20 7 11 11 20 10 19
-2 0 -10 -3 -18 -7z"/>
<path d="M5780 2300 c0 -6 7 -10 15 -10 8 0 15 2 15 4 0 2 -7 6 -15 10 -8 3
-15 1 -15 -4z"/>
<path d="M2178 2293 c7 -3 16 -2 19 1 4 3 -2 6 -13 5 -11 0 -14 -3 -6 -6z"/>
<path d="M5815 2260 c3 -5 11 -10 16 -10 6 0 7 5 4 10 -3 6 -11 10 -16 10 -6
0 -7 -4 -4 -10z"/>
<path d="M5770 2249 c0 -5 5 -7 10 -4 6 3 10 8 10 11 0 2 -4 4 -10 4 -5 0 -10
-5 -10 -11z"/>
<path d="M2282 2225 c-7 -8 -9 -15 -4 -15 5 0 15 7 22 15 16 19 -1 19 -18 0z"/>
<path d="M2320 2229 c0 -5 5 -7 10 -4 6 3 10 8 10 11 0 2 -4 4 -10 4 -5 0 -10
-5 -10 -11z"/>
<path d="M5805 2201 c-11 -5 -24 -6 -29 -3 -5 3 -6 0 -2 -6 10 -16 31 -15 46
3 14 17 13 17 -15 6z"/>
<path d="M2360 2190 c-9 -6 -10 -10 -3 -10 6 0 15 5 18 10 8 12 4 12 -15 0z"/>
<path d="M3620 2184 c0 -8 5 -12 10 -9 6 3 10 10 10 16 0 5 -4 9 -10 9 -5 0
-10 -7 -10 -16z"/>
<path d="M2265 2180 c-3 -5 -1 -10 4 -10 6 0 11 5 11 10 0 6 -2 10 -4 10 -3 0
-8 -4 -11 -10z"/>
<path d="M3660 2169 c0 -5 5 -7 10 -4 6 3 10 8 10 11 0 2 -4 4 -10 4 -5 0 -10
-5 -10 -11z"/>
<path d="M3645 2140 c3 -5 8 -10 11 -10 2 0 4 5 4 10 0 6 -5 10 -11 10 -5 0
-7 -4 -4 -10z"/>
<path d="M5897 2099 c7 -7 15 -10 18 -7 3 3 -2 9 -12 12 -14 6 -15 5 -6 -5z"/>
<path d="M5725 2080 c-3 -5 -1 -10 5 -10 6 0 9 -4 6 -9 -4 -5 2 -8 11 -6 10 2
23 4 28 5 11 1 -24 30 -36 30 -4 0 -11 -4 -14 -10z"/>
<path d="M2167 2063 c-4 -3 -7 -11 -7 -17 0 -6 5 -5 12 2 6 6 9 14 7 17 -3 3
-9 2 -12 -2z"/>
<path d="M5843 2043 c9 -2 23 -2 30 0 6 3 -1 5 -18 5 -16 0 -22 -2 -12 -5z"/>
<path d="M5731 2011 c-9 -16 -7 -17 15 -13 19 3 22 7 13 18 -15 18 -16 18 -28
-5z"/>
<path d="M2485 2000 c10 -34 37 -79 109 -180 97 -135 210 -260 235 -260 10 0
3 12 -21 33 -33 29 -261 325 -310 401 -17 27 -19 28 -13 6z"/>
<path d="M5760 1970 c0 -5 5 -10 11 -10 5 0 7 5 4 10 -3 6 -8 10 -11 10 -2 0
-4 -4 -4 -10z"/>
<path d="M5798 1973 c6 -2 18 -2 25 0 6 3 1 5 -13 5 -14 0 -19 -2 -12 -5z"/>
<path d="M2316 1943 c-6 -14 -5 -15 5 -6 7 7 10 15 7 18 -3 3 -9 -2 -12 -12z"/>
<path d="M5778 1943 c7 -3 16 -2 19 1 4 3 -2 6 -13 5 -11 0 -14 -3 -6 -6z"/>
<path d="M5818 1813 c7 -3 16 -2 19 1 4 3 -2 6 -13 5 -11 0 -14 -3 -6 -6z"/>
<path d="M5750 1790 c-8 -5 -10 -10 -5 -10 6 0 17 5 25 10 8 5 11 10 5 10 -5
0 -17 -5 -25 -10z"/>
<path d="M2030 1779 c0 -5 5 -7 10 -4 6 3 10 8 10 11 0 2 -4 4 -10 4 -5 0 -10
-5 -10 -11z"/>
<path d="M2125 1740 c-3 -5 -1 -10 4 -10 6 0 11 5 11 10 0 6 -2 10 -4 10 -3 0
-8 -4 -11 -10z"/>
<path d="M2161 1717 c-13 -21 -12 -21 5 -5 10 10 16 20 13 22 -3 3 -11 -5 -18
-17z"/>
<path d="M4485 1722 c6 -4 12 -16 13 -27 6 -32 23 -49 34 -33 13 20 -2 -42
-19 -74 -7 -16 -11 -28 -7 -28 4 0 0 -8 -7 -17 -13 -16 -12 -17 3 -4 10 7 15
18 12 25 -3 6 1 2 10 -8 8 -10 14 -22 11 -25 -2 -4 5 -12 15 -19 16 -10 20 -8
25 8 12 37 38 41 79 14 l37 -26 -15 29 c-19 37 -172 193 -188 193 -8 0 -9 -3
-3 -8z"/>
<path d="M5760 1716 c0 -2 9 -6 20 -9 11 -3 18 -1 14 4 -5 9 -34 13 -34 5z"/>
<path d="M5728 1703 c7 -3 16 -2 19 1 4 3 -2 6 -13 5 -11 0 -14 -3 -6 -6z"/>
<path d="M5740 1681 c0 -5 7 -12 16 -15 24 -9 28 -7 14 9 -14 17 -30 20 -30 6z"/>
<path d="M2180 1669 c0 -5 5 -7 10 -4 6 3 10 8 10 11 0 2 -4 4 -10 4 -5 0 -10
-5 -10 -11z"/>
<path d="M2095 1630 c-3 -5 -1 -10 4 -10 6 0 11 5 11 10 0 6 -2 10 -4 10 -3 0
-8 -4 -11 -10z"/>
<path d="M5830 1536 c0 -2 7 -7 16 -10 8 -3 12 -2 9 4 -6 10 -25 14 -25 6z"/>
<path d="M5915 1510 c-3 -6 1 -7 9 -4 18 7 21 14 7 14 -6 0 -13 -4 -16 -10z"/>
<path d="M5841 1506 c12 -10 59 -15 59 -6 0 5 -14 10 -32 10 -17 0 -29 -2 -27
-4z"/>
<path d="M3455 1009 c11 -7 37 -25 58 -41 26 -21 37 -25 37 -15 0 14 -26 32
-42 29 -4 -1 -5 5 -2 13 4 9 0 15 -7 15 -8 0 -25 3 -39 6 -23 5 -24 5 -5 -7z"/>
<path d="M42 263 c-6 -2 -10 -9 -6 -14 8 -14 21 -11 21 6 0 8 -1 15 -1 14 -1
0 -7 -3 -14 -6z"/>
<path d="M2 220 c0 -14 2 -19 5 -12 2 6 2 18 0 25 -3 6 -5 1 -5 -13z"/>
<path d="M3 165 c0 -8 4 -12 9 -9 4 3 8 9 8 15 0 5 -4 9 -8 9 -5 0 -9 -7 -9
-15z"/>
</g>
</svg>
